<svg width="1820" height="791" viewBox="0 0 1820 791" fill="none" xmlns="http://www.w3.org/2000/svg">
<mask id="mask0_2006_23" style="mask-type:alpha" maskUnits="userSpaceOnUse" x="0" y="0" width="1820" height="791">
<path d="M0 32C0 14.3269 14.3269 0 32 0H1788C1805.67 0 1820 14.3269 1820 32V759C1820 776.673 1805.67 791 1788 791H32C14.3269 791 0 776.673 0 759V32Z" fill="black"/>
</mask>
<g mask="url(#mask0_2006_23)">
<mask id="mask1_2006_23" style="mask-type:alpha" maskUnits="userSpaceOnUse" x="1580" y="396" width="199" height="216">
<path d="M1580 428C1580 410.327 1594.33 396 1612 396H1747C1764.67 396 1779 410.327 1779 428V580C1779 597.673 1764.67 612 1747 612H1612C1594.33 612 1580 597.673 1580 580V428Z" fill="white"/>
</mask>
<g mask="url(#mask1_2006_23)">
<path d="M1580 428C1580 410.327 1594.33 396 1612 396H1747C1764.67 396 1779 410.327 1779 428V580C1779 597.673 1764.67 612 1747 612H1612C1594.33 612 1580 597.673 1580 580V428Z" fill="white"/>
<rect x="1577" y="395" width="64" height="64" rx="8" fill="#F4BF3D"/>
<path d="M1616 539.986C1614.58 540.558 1600.46 547.354 1588.52 554.852C1580.21 560.065 1576.47 569.702 1577.26 579.473L1577.61 583.746C1578.96 600.292 1592.74 613.057 1609.34 613.141L1779 614V485.279C1779 477.32 1771.8 471.302 1763.97 472.717C1761.08 473.239 1758.46 474.741 1756.55 476.969L1740.3 495.908C1734.38 502.811 1725.79 506.703 1716.73 507.526C1711.42 508.009 1706.83 508.736 1706 509.776C1704 512.294 1682 536.965 1679 535.958C1676 534.951 1618.5 538.979 1616 539.986Z" fill="#19C48E"/>
<path d="M1790.15 541.863L1795.28 536.054C1798.68 532.197 1804.6 531.928 1808.34 535.459C1809.74 536.785 1810.69 538.524 1811.04 540.423L1812 545.637C1813 551.093 1808.53 556.002 1803 555.5H1795.4C1792.85 555.5 1790.35 556.203 1788.18 557.531L1781.17 561.814C1777.23 564.222 1772.07 562.372 1770.56 558.009C1769.61 555.274 1770.39 552.238 1772.53 550.291L1772.89 549.962C1773.94 549.005 1775.23 548.347 1776.63 548.057L1781.1 547.125C1784.6 546.395 1787.78 544.548 1790.15 541.863Z" fill="#119068"/>
<rect x="1665" y="550" width="6" height="18" transform="rotate(-90 1665 550)" fill="#BF9F50"/>
<rect x="1624" y="514" width="41" height="39" fill="#C68700"/>
<rect x="1665" y="541" width="3" height="12" fill="#6D5311"/>
<rect x="1670" y="541" width="3" height="12" fill="#6D5311"/>
<rect x="1675" y="541" width="3" height="12" fill="#6D5311"/>
<rect x="1680" y="541" width="3" height="12" fill="#6D5311"/>
<path d="M1620 515H1670L1645 491L1620 515Z" fill="black"/>
<path d="M1658.78 577.314L1644.25 581.049C1643.13 581.337 1642.17 582.065 1641.59 583.068L1641.29 583.582C1639.58 586.538 1642.09 590.152 1645.45 589.591C1645.82 589.531 1646.18 589.52 1646.55 589.559L1660 591H1671.96C1674.82 591 1677.5 589.645 1679.2 587.35L1680.5 585.588C1683.1 582.069 1682.79 577.189 1679.77 574.024L1679.42 573.652C1676.54 570.633 1671.96 569.991 1668.36 572.102L1661.09 576.362C1660.37 576.785 1659.59 577.106 1658.78 577.314Z" fill="#119068"/>
<rect x="1640" y="501" width="9" height="9" fill="white"/>
<rect x="1630" y="530" width="12" height="9" fill="white"/>
<rect x="1629" y="518" width="33" height="9" fill="white"/>
<rect x="1647" y="535" width="14" height="12" fill="white"/>
<rect x="1630" y="542" width="7" height="11" fill="#45350E"/>
<rect x="1665" y="544" width="3" height="18" transform="rotate(-90 1665 544)" fill="#9A720F"/>
<rect x="1665" y="553" width="3" height="18" transform="rotate(-90 1665 553)" fill="#9A720F"/>
<path d="M1763.01 627H1693.33V591.213L1692 585.911V524.278V518C1692 516.343 1693.34 515 1695 515H1762C1763.66 515 1765 516.343 1765 518V570.669L1763.01 627Z" fill="#F9F9F9"/>
<path d="M1692 518C1692 516.343 1693.34 515 1695 515H1762C1763.66 515 1765 516.343 1765 518V526H1692V518Z" fill="#D9D9D9"/>
<rect width="2.65455" height="10.6182" transform="matrix(-1 0 0 1 1697.31 515.173)" fill="#A0A0A0"/>
<rect width="2.65455" height="10.6182" transform="matrix(-1 0 0 1 1702.62 515.173)" fill="#A0A0A0"/>
<rect width="2.65455" height="10.6182" transform="matrix(-1 0 0 1 1707.93 515.173)" fill="#A0A0A0"/>
<rect width="2.65455" height="10.6182" transform="matrix(-1 0 0 1 1713.24 515.173)" fill="#A0A0A0"/>
<rect width="2.65455" height="10.6182" transform="matrix(-1 0 0 1 1718.55 515.173)" fill="#A0A0A0"/>
<rect width="2.65455" height="10.6182" transform="matrix(-1 0 0 1 1723.85 515.173)" fill="#A0A0A0"/>
<rect width="2.65455" height="10.6182" transform="matrix(-1 0 0 1 1729.16 515.173)" fill="#A0A0A0"/>
<rect width="2.65455" height="10.6182" transform="matrix(-1 0 0 1 1734.47 515.173)" fill="#A0A0A0"/>
<rect width="2.65455" height="10.6182" transform="matrix(-1 0 0 1 1739.78 515.173)" fill="#A0A0A0"/>
<rect width="2.65455" height="10.6182" transform="matrix(-1 0 0 1 1745.09 515.173)" fill="#A0A0A0"/>
<rect width="2.65455" height="10.6182" transform="matrix(-1 0 0 1 1750.4 515.173)" fill="#A0A0A0"/>
<rect width="2.65455" height="10.6182" transform="matrix(-1 0 0 1 1755.71 515.173)" fill="#A0A0A0"/>
<rect width="2.65455" height="10.6182" transform="matrix(-1 0 0 1 1761.02 515.173)" fill="#A0A0A0"/>
<rect x="1709" y="539" width="39" height="35" fill="white"/>
<rect x="1711" y="540" width="8" height="4" fill="#000084"/>
<rect x="1719" y="608" width="18" height="7" fill="#000084"/>
<rect x="1695" y="619" width="19" height="4" transform="rotate(-90 1695 619)" fill="#000084"/>
<rect x="1692" y="584" width="18" height="4" transform="rotate(-90 1692 584)" fill="#000084"/>
<rect x="1692" y="555" width="16" height="4" transform="rotate(-90 1692 555)" fill="#000084"/>
<rect x="1761" y="555" width="16" height="4" transform="rotate(-90 1761 555)" fill="#000084"/>
<rect x="1761" y="586" width="16" height="4" transform="rotate(-90 1761 586)" fill="#000084"/>
<rect x="1757" y="616" width="16" height="4" transform="rotate(-90 1757 616)" fill="#000084"/>
<rect x="1709" y="538" width="39" height="1" fill="#F83ADC"/>
<rect width="16" height="2" transform="matrix(1 0 0 -1 1711 548)" fill="#F83ADC"/>
<rect width="1" height="4" transform="matrix(1 0 0 -1 1715 544)" fill="#F83ADC"/>
<rect width="4" height="7" transform="matrix(1 0 0 -1 1728 615)" fill="#F83ADC"/>
<rect width="4" height="4" transform="matrix(0 -1 -1 0 1699 613)" fill="#F83ADC"/>
<rect width="4" height="4" transform="matrix(0 -1 -1 0 1696 579)" fill="#F83ADC"/>
<rect width="4" height="4" transform="matrix(0 -1 -1 0 1696 551)" fill="#F83ADC"/>
<rect width="4" height="4" transform="matrix(0 -1 -1 0 1765 551)" fill="#F83ADC"/>
<rect width="4" height="4" transform="matrix(0 -1 -1 0 1765 582)" fill="#F83ADC"/>
<rect width="4" height="4" transform="matrix(0 -1 -1 0 1761 612)" fill="#F83ADC"/>
<path d="M1711 550H1730V568H1711V550Z" fill="#000084"/>
<rect x="1711" y="570" width="8" height="1" fill="#000084"/>
<rect x="1732" y="550" width="4" height="4" fill="#000084"/>
<rect x="1737" y="550" width="1" height="4" fill="#000084"/>
<rect x="1741" y="550" width="1" height="4" fill="#000084"/>
<rect x="1740" y="550" width="4" height="1" fill="#000084"/>
<rect x="1720" y="570" width="3" height="1" fill="#000084"/>
<rect x="1724" y="570" width="6" height="1" fill="#000084"/>
<rect x="1741" y="542" width="7" height="1" fill="#000084"/>
<path d="M1603 452C1603 443.163 1610.16 436 1619 436H1630.13C1631.37 436 1632.61 435.856 1633.82 435.571L1657.25 430.032C1658.74 429.679 1660.28 429.543 1661.81 429.627L1690.65 431.212C1698.81 431.66 1705.33 438.186 1705.76 446.347L1706.25 455.776C1706.68 463.885 1700.96 471.028 1692.96 472.39L1683.5 474L1654.29 478.789C1653.43 478.93 1652.56 479 1651.7 479H1619C1610.16 479 1603 471.837 1603 463V452Z" fill="#CBE0FF"/>
<path d="M1625.23 410.477C1625.64 401.649 1633.12 394.82 1641.95 395.224L1670.64 396.535C1671.43 396.571 1672.22 396.549 1673.01 396.468L1714.15 392.234C1715.12 392.134 1716.1 392.124 1717.07 392.202L1773.28 396.729C1781.36 397.38 1787.68 403.975 1787.98 412.078L1788.3 420.365C1788.62 429.046 1781.96 436.401 1773.29 436.934L1751.53 438.273L1703.07 441.063L1639.98 438.179C1631.16 437.775 1624.33 430.292 1624.73 421.465L1625.23 410.477Z" fill="#B1CBF3"/>
<path d="M1505 470.5C1505 461.663 1512.16 454.5 1521 454.5H1532.13C1533.37 454.5 1534.61 454.356 1535.82 454.071L1559.25 448.532C1560.74 448.179 1562.28 448.043 1563.81 448.127L1592.65 449.712C1600.81 450.16 1607.33 456.686 1607.76 464.847L1608.25 474.276C1608.68 482.385 1602.96 489.528 1594.96 490.89L1585.5 492.5L1556.29 497.289C1555.43 497.43 1554.56 497.5 1553.7 497.5H1521C1512.16 497.5 1505 490.337 1505 481.5V470.5Z" fill="#E2EEFF"/>
<path d="M1615 476.01C1615 470.493 1619.47 466.02 1624.99 466.02H1627.25C1628.19 466.02 1629.12 465.913 1630.04 465.7L1639.4 463.518C1640.87 463.174 1642.39 463.042 1643.9 463.123L1654.21 463.682C1659.24 463.955 1663.26 467.979 1663.53 473.015C1663.8 478.029 1660.26 482.446 1655.31 483.278L1652.93 483.677L1639.83 485.795C1638.98 485.931 1638.13 486 1637.27 486H1624.99C1619.47 486 1615 481.527 1615 476.01Z" fill="#F4F9FF"/>
<path d="M1702 440.354C1702 431.517 1709.16 424.354 1718 424.354H1720.67C1722.52 424.354 1724.36 424.032 1726.11 423.402L1740.54 418.188C1742.71 417.405 1745.02 417.1 1747.32 417.293L1763.36 418.639C1771.43 419.317 1777.73 425.93 1778.01 434.032L1778.56 450.009C1778.82 457.495 1773.85 464.159 1766.6 466.044L1761.6 467.343L1740.93 472.52C1739.66 472.839 1738.36 473 1737.05 473H1718C1709.16 473 1702 465.837 1702 457V440.354Z" fill="#E1EDFF"/>
</g>
<rect x="1216.5" y="413.5" width="318" height="399" rx="26.5" fill="white" stroke="white" stroke-width="11"/>
<rect x="1421" y="459" width="78" height="78" fill="#F4BF3D"/>
<rect x="1421" y="553" width="34" height="42" fill="#2873FF"/>
<rect x="1465" y="553" width="34" height="82" fill="#2058BF"/>
<rect x="1236" y="692.034" width="279" height="98.9655" rx="25" fill="#2873FF"/>
<path d="M1170.42 693H1261V791H917L918.925 782.254C921.24 771.738 927.845 762.669 937.142 757.238C944.704 752.821 953.541 751.109 962.215 752.317C966.583 752.925 971.157 753.554 975.367 754.129C986.169 755.606 997.162 754.725 1007.6 751.578L1041.25 741.433C1056.32 736.89 1070.57 729.988 1083.48 720.984L1085.19 719.791C1110.2 702.351 1139.93 693 1170.42 693Z" fill="#2873FF"/>
<path d="M1261 693C1238.99 693 1200.92 693 1170.42 693C1139.93 693 1110.2 702.351 1085.19 719.791L1083.48 720.984C1070.57 729.988 1056.32 736.89 1041.25 741.433L1007.6 751.578C997.162 754.725 986.169 755.606 975.367 754.129C970.685 753.489 965.551 752.783 960.752 752.113C953.026 751.034 945.154 752.558 938.417 756.493V756.493C928.507 762.282 922.141 772.636 921.448 784.092L921 791.5" stroke="white" stroke-width="8"/>
<path d="M1390.03 728.044L1324.17 754.821C1323.46 755.112 1322.72 755.282 1321.95 755.318C1316.01 755.596 1287.17 756.735 1239.66 755.261C1231.52 755.008 1204.8 754.648 1183.14 754.156C1175.85 753.991 1174.22 745.016 1180.95 742.174L1243.11 715.879L1256.3 708.312C1261.55 705.3 1267.42 703.619 1273.47 703.449C1301.01 702.677 1345.87 701.837 1384.58 701.179C1400.06 700.916 1404.37 722.212 1390.03 728.044Z" fill="#2058BF"/>
<path d="M1256 568.633C1256 564.638 1259.24 561.4 1263.23 561.4H1270.58C1271.69 561.4 1271.83 563.006 1270.74 563.196C1264.94 564.211 1260.27 568.529 1258.8 574.233L1258.22 576.519C1257.89 577.801 1256 577.563 1256 576.239V568.633Z" fill="#2873FF"/>
<path d="M1263 577.956C1263 573.732 1266.42 570.307 1270.65 570.307H1277.82C1284.97 570.307 1286.72 580.244 1280.01 582.688C1278.28 583.32 1276.89 584.684 1276.23 586.406C1273.52 593.451 1263 591.676 1263 584.128V577.956Z" fill="white"/>
<rect x="1229" y="485" width="171" height="241" rx="13" fill="#F2F3F7"/>
<rect x="1238" y="493" width="153" height="207" rx="13" fill="#C8CBD6"/>
<path d="M1243 642H1244C1273.82 642 1298 666.177 1298 696H1256C1248.82 696 1243 690.18 1243 683V642Z" fill="#E0E3E9"/>
<rect x="1242" y="497" width="145" height="199" rx="9" stroke="#3B3D48" stroke-width="8"/>
<rect x="1247" y="503" width="134" height="187" rx="3" stroke="#E0E3E9" stroke-width="4"/>
<path d="M1238 645H1241C1271.38 645 1296 669.624 1296 700H1251C1243.82 700 1238 694.18 1238 687V645Z" fill="#3B3D48"/>
<rect x="1254.5" y="530.5" width="121" height="19" fill="#060606" stroke="#D6D9E1" stroke-width="3"/>
<rect x="1299" y="584" width="25" height="25" rx="12.5" fill="#3B3D48"/>
<rect x="1304" y="589" width="15" height="15" rx="7.5" fill="#686A74"/>
<rect x="1322" y="677" width="46" height="6" rx="3" fill="#4C4E5A"/>
<rect x="1373" y="677" width="2" height="6" rx="1" fill="#4C4E5A"/>
<rect x="1371" y="681" width="2" height="6" rx="1" transform="rotate(-90 1371 681)" fill="#4C4E5A"/>
<path d="M1667.42 729.5H1663L1645.4 731.634C1640.29 732.253 1638.8 738.964 1643.18 741.68C1644.04 742.216 1645.04 742.5 1646.05 742.5H1651H1651.56C1653.83 742.5 1656.08 742.962 1658.17 743.857C1664.67 746.643 1672.22 745.053 1677.04 739.883L1683 733.5L1687 729.5H1684.58C1682.22 729.5 1679.89 730.012 1677.75 731L1675.45 732.06C1674.83 732.35 1674.14 732.5 1673.45 732.5H1671.58C1670.64 732.5 1669.8 731.896 1669.5 731C1669.2 730.104 1668.36 729.5 1667.42 729.5Z" fill="#2058BF"/>
<path d="M1580 677C1580 659.327 1594.33 645 1612 645H1747C1764.67 645 1779 659.327 1779 677V735C1779 752.673 1764.67 767 1747 767H1612C1594.33 767 1580 752.673 1580 735V677Z" fill="white"/>
<mask id="mask2_2006_23" style="mask-type:alpha" maskUnits="userSpaceOnUse" x="1580" y="645" width="199" height="122">
<path d="M1580 677C1580 659.327 1594.33 645 1612 645H1747C1764.67 645 1779 659.327 1779 677V735C1779 752.673 1764.67 767 1747 767H1612C1594.33 767 1580 752.673 1580 735V677Z" fill="#2873FF"/>
</mask>
<g mask="url(#mask2_2006_23)">
<path d="M1580 677C1580 659.327 1594.33 645 1612 645H1747C1764.67 645 1779 659.327 1779 677V735C1779 752.673 1764.67 767 1747 767H1612C1594.33 767 1580 752.673 1580 735V677Z" fill="#2873FF"/>
<g opacity="0.5">
<rect x="1602" y="722" width="6" height="6" rx="3" fill="white"/>
<rect x="1599" y="743" width="6" height="6" rx="3" fill="white"/>
<rect x="1638" y="727" width="6" height="6" rx="3" fill="white"/>
<rect x="1624" y="760" width="6" height="6" rx="3" fill="white"/>
<rect x="1650" y="761" width="6" height="6" rx="3" fill="white"/>
<rect x="1599" y="706" width="6" height="6" rx="3" fill="white"/>
<rect x="1577" y="700" width="6" height="6" rx="3" fill="white"/>
<path d="M1580.5 702L1602.5 709.5L1605 725.5M1605 725.5C1603.33 732 1600.5 745.3 1602.5 746.5M1605 725.5L1562 737.5L1602.5 746.5M1602.5 746.5C1604.5 747.7 1619.67 758.667 1627 764M1602.5 746.5L1595.5 781.5L1627 764M1627 764L1640.5 731L1653.5 764L1633 785L1627 764Z" stroke="white"/>
</g>
<rect x="1726" y="721" width="50" height="50" rx="25" fill="#5A94FF"/>
<rect x="1585" y="627" width="50" height="50" rx="25" fill="#5A94FF"/>
<rect x="1570" y="620" width="50" height="50" rx="25" fill="#7DABFF"/>
<g opacity="0.5">
<rect x="1726" y="730" width="6" height="6" rx="3" fill="white"/>
<rect x="1708" y="739" width="6" height="6" rx="3" fill="white"/>
<rect x="1717" y="743" width="6" height="6" rx="3" fill="white"/>
<rect x="1710" y="748" width="6" height="6" rx="3" fill="white"/>
<rect x="1684" y="762" width="6" height="6" rx="3" fill="white"/>
<path d="M1729 733L1711 743L1719.5 746L1712.5 751L1692.5 755L1686.5 766" stroke="white"/>
</g>
<path d="M1756.56 643.547L1755.44 643.26C1753.34 642.718 1752 645.442 1753.72 646.775L1760.14 651.775C1765.71 656.103 1770.25 661.604 1773.45 667.887L1777.03 674.919C1778.06 676.939 1781.12 675.959 1780.79 673.717L1780.21 669.827C1778.32 657.11 1769 646.76 1756.56 643.547Z" fill="white"/>
</g>
<path d="M1674.51 715.663L1671.69 727.985C1671.29 729.749 1669.72 731 1667.91 731C1666.18 731 1664.67 729.864 1664.18 728.21L1654.91 696.524C1653.74 692.514 1654.89 688.183 1657.9 685.285L1659.91 683.346C1663.48 679.907 1669.21 680.193 1672.42 683.971L1673.49 685.222C1674.45 686.35 1675.85 687 1677.33 687C1678.72 687 1680.04 686.432 1680.99 685.429L1682.34 684.011C1686.01 680.146 1692.13 680.01 1695.97 683.707L1697.31 685.003C1700.48 688.058 1701.62 692.66 1700.25 696.842L1689.88 728.328C1689.35 729.923 1687.87 731 1686.19 731C1684.33 731 1682.74 729.692 1682.37 727.875L1679.95 715.737C1679.69 714.436 1678.55 713.5 1677.22 713.5C1675.92 713.5 1674.79 714.397 1674.51 715.663Z" fill="white"/>
<path d="M1700.36 696.501L1689.87 728.351C1689.35 729.932 1687.88 731 1686.21 731C1685.18 731 1684.75 729.69 1685.57 729.073L1685.9 728.822C1686.62 728.287 1687.15 727.545 1687.43 726.698L1695.5 702.141C1697.4 696.333 1696.71 689.983 1693.59 684.727C1692.87 683.511 1694.45 682.252 1695.47 683.233L1697.57 685.252C1700.58 688.155 1701.67 692.527 1700.36 696.501Z" fill="#DBDBDB"/>
</g>
</svg>
