<svg width="127" height="58" viewBox="0 0 127 58" fill="none" xmlns="http://www.w3.org/2000/svg">
<rect width="5" height="6" rx="1" fill="#2873FF"/>
<rect x="12" width="9" height="6" rx="1" fill="white"/>
<rect x="28" width="9" height="6" rx="1" fill="#F83ADC"/>
<rect x="44" width="9" height="6" rx="1" fill="white"/>
<rect x="58.2494" y="0.434448" width="9" height="5.55414" rx="1" transform="rotate(13 58.2494 0.434448)" fill="#F4BF3D"/>
<rect x="71.5141" y="4.56934" width="9" height="5.18084" rx="1" transform="rotate(28 71.5141 4.56934)" fill="white"/>
<rect x="82.6963" y="10.8411" width="9" height="5.12759" rx="1" transform="rotate(41 82.6963 10.8411)" fill="#5172FF"/>
<path d="M78.1715 33.4634L101.491 8.26582C102.013 7.70205 102.949 7.91266 103.179 8.64557L113.528 41.6127C113.759 42.3502 113.102 43.0604 112.349 42.8865L78.6806 35.117C77.9321 34.9443 77.6497 34.0272 78.1715 33.4634Z" fill="#19C48E"/>
</svg>
